<?xml version="1.0" encoding="UTF-8" standalone="no"?>
<svg
   xmlns:dc="http://purl.org/dc/elements/1.1/"
   xmlns:cc="http://creativecommons.org/ns#"
   xmlns:rdf="http://www.w3.org/1999/02/22-rdf-syntax-ns#"
   xmlns:svg="http://www.w3.org/2000/svg"
   xmlns="http://www.w3.org/2000/svg"
   xmlns:sodipodi="http://sodipodi.sourceforge.net/DTD/sodipodi-0.dtd"
   xmlns:inkscape="http://www.inkscape.org/namespaces/inkscape"
   enable-background="new 0 0 1723.788 1685.724"
   version="1.1"
   viewBox="0 0 1723.788 1685.724"
   xml:space="preserve"
   id="svg16"
   sodipodi:docname="logo.svg"
   inkscape:version="1.0.2 (e86c870879, 2021-01-15, custom)"><metadata
   id="metadata22"><rdf:RDF><cc:Work
       rdf:about=""><dc:format>image/svg+xml</dc:format><dc:type
         rdf:resource="http://purl.org/dc/dcmitype/StillImage" /></cc:Work></rdf:RDF></metadata><defs
   id="defs20" /><sodipodi:namedview
   pagecolor="#ffffff"
   bordercolor="#666666"
   borderopacity="1"
   objecttolerance="10"
   gridtolerance="10"
   guidetolerance="10"
   inkscape:pageopacity="0"
   inkscape:pageshadow="2"
   inkscape:window-width="1920"
   inkscape:window-height="1017"
   id="namedview18"
   showgrid="false"
   inkscape:zoom="0.50423438"
   inkscape:cx="861.89398"
   inkscape:cy="842.862"
   inkscape:window-x="1912"
   inkscape:window-y="-8"
   inkscape:window-maximized="1"
   inkscape:current-layer="svg16" />
	<path
   d="m794.87 1541.2c-14.98-38.819-14.327-83.56 2.218-121.78 1.526-3.525 3.218-7.26 2.61-11.052s-4.716-7.246-8.199-5.626c-2.647 1.231-3.505 4.507-4.057 7.373-6.129 31.784-12.284 63.869-11.458 96.229 0.941 36.859 12.693 64.753 32.843 94.598 7.371 10.64-13.594 5.856-20.415 5.088-19.371-2.183-37.389-7.746-56.65-9.655-2.84-0.281-6.133 0.308-7.595-3.654-1.385-3.752-0.171-6.73 2.091-9.257 2.598-2.902 5.423-5.83 8.706-7.833 4.786-2.92 8.034-6.725 5.244-11.885-5.073-9.336-80.124 28.836-85.719 37.594-10.827 16.945-27.361 22.101-46.351 24.283-17.829 2.049-35.693 4.042-53.509 3.459-25.387-0.83-49.921-5.772-74.121-15.016-24.091-9.203-44.687-22.813-62.776-40.096-13.705-13.094-24.798-28.577-33.333-46.165-14.563-30.009-23.793-61.164-29.359-94.006-6.726-39.69-15.76-78.99-23.9-118.44-0.984-4.77-2.815-9.361-3.913-14.113-8.088-34.999-15.19-70.256-24.419-104.95-6.651-25-8.362-49.832-5.343-75.266 0.251-2.113 0.729-4.456 0.114-6.375-7.531-23.478 0.143-46.641 1.394-69.901 2.621-48.72 26.068-87.993 57.209-123.58 8.601-9.83 12.786-22.124 22.727-30.619 11.599-9.912 25.14-18.223 38.379-25.728 27.184-15.411 67.651-36.866 99.891-33.271 13.458 1.501 27.134-1.516 40.963 0.618 10.337 1.595 19.14 7.05 29.717 8.305 10.603 1.259 19.859-1.013 29.435-3.617 24.453-6.65 45.952-19.517 68.313-30.972 17.866-9.152 37.614-16.635 57.567-14.432 15.758 1.74 27.896 11.222 43.413 13.546 19.952 2.988 39.998 8.787 58.478 16.844 14.485 6.316 29.94 10.311 42.606 20.382 2.012 1.599 3.971 1.354 5.718-0.42 1.973-2.004 2.066-3.951 0.492-6.518-3.339-5.446-7.35-10.427-9.913-16.439-3.039-7.131 0.183-9.923 6.395-10.431 16.282-1.331 32.122 0.468 47.346 7.048 26.896 11.626 54.878 20.435 77.832 39.466 31.721 26.301 43.029 68.103 31.974 107.38-12.48 44.336-45.292 68.167-84.909 86.639-2.99 1.394-6.895 1.344-10.49-0.937-4.592-2.913-9.616-5.393-15.481-4.426-0.531 0.088-1.171-0.286-1.72-0.535-24.441-11.091-50.822-6.174-76.253-8.944-19.91-2.169-40.111-1.539-60.101-3.156-8.453-0.684-16.241 1.985-24.486 2.078-26.184 0.295-51.967 5.248-77.36 10.591-24.632 5.183-49.505 9.873-73.648 17.557-13.626 4.336-27.803 6.983-41.793 10.115-10.93 2.447-21.728-1.742-32.76-0.964-15.805 1.115-31.577 1.636-46.971 6.086-15.169 4.385-30.67 8.842-45.932 11.303-18.61 3.001-36.312 12.744-56.234 8.685-6.753-1.376-13.804 2.569-20.059 5.397-9.398 4.25-10.386 16.095-2.904 23.879 7.615 7.922 17.74 9.873 27.744 9.843 15.402-0.047 30.651 3.137 46.11 1.398 24.178-2.719 48.23-5.876 71.052-14.955 1.334-0.531 3.251-0.771 2.873-2.847-0.337-1.851-2.171-2.301-3.57-2.052-3.575 0.636-7.035 2.097-10.62 2.471-15.607 1.625-31.271 2.731-46.859 4.507-13.107 1.493-26.063 0.774-39.025-1.121-3.633-0.531-7.917-0.83-8.496-5.383-0.587-4.614 4.087-4.579 6.888-5.937 31.023-15.044 63.633-25.145 97.967-28.063 17.189-1.46 34.389-3.764 51.871-2.725 16.079 0.955 30.751-7.126 46.303-10.111 7.764-1.49 15.26-4.282 23.354-4.024 5.568 0.178 10.912-1.389 16.167-3.021 14.612-4.537 29.935-4.773 44.732-7.551 12.872-2.416 25.683-3.446 38.575-4.788 17.045-1.774 33.843-6.223 51.2-4.526 5.588 0.546 10.81-2.147 16.239-2.25 26.646-0.505 53.328-2.348 79.876 2.046 7.321 1.212 15.007-0.69 22.045 3.424 8.481 4.959 9.27 9.507 1.166 14.765-15.457 10.029-31.593 18.576-48.795 25.661-27.351 11.265-55.005 21.518-83.163 30.419-11.397 3.602-23.353 2.709-35.247 2.298-10.464-0.361-21.419-0.787-31.373 1.818-14.064 3.68-28.362 1.895-42.281 4.477-13.772 2.555-27.957 2.257-41.479 6.291-1.307 0.39-3.584 0.369-3.411 2.094 0.19 1.901 2.372 1.41 3.809 1.361 9.726-0.331 19.449-0.745 29.174-1.077 2.781-0.095 5.598 0.154 7.856 1.951 3.888 3.096 6.354 6.029-0.068 9.48-8.669 4.658-18.205 7.645-27.507 8.691-32.752 3.682-65.628 4.972-98.037-3.527-1.638-0.429-3.861-2.099-4.801 0.108-0.841 1.976 1.683 2.737 3.137 3.743 14.784 10.234 32.229 8.88 48.614 9.577 19.662 0.837 39.717 0.397 59.029-4.56 15.887-4.078 31.518-9.222 47.111-14.355 9.896-3.258 19.484-6.726 30.307-5.348 5.844 0.744 6.353 1.858 2.873 6.338-7.15 9.203-15.81 16.945-24.773 24.103-22.079 17.634-42.543 36.766-62.102 57.236-15.743 16.477-25.503 36.149-36.902 55.093-0.309 0.514-0.567 1.116-0.642 1.704-0.326 2.547-2.656 6.282 0.024 7.329 2.692 1.051 4.115-3.093 5.032-5.393 5.064-12.699 13.334-22.855 22.985-32.425 16.181-16.047 30.71-33.841 47.539-49.135 21.799-19.811 44.624-39.646 75.156-43.942 16.005-2.252 29.713-6.164 40.648-18.513 2.434-2.749 7.391-3.539 11.29-2.831 24.087 4.373 48.654 4.576 72.785 9.116 13.189 2.482 26.896 2.26 39.721 7.186 19.236 7.389 38.757 14.162 54.853 27.781 2.55 2.157 5.701 3.591 8.357 5.639 2.973 2.292 6.016 2.893 9.366 1.223 2.24-1.117 3.104-3.373 2.229-5.418-1.28-2.992-2.915-6.466-6.981-6.055-2.66 0.269-4.333-1.122-5.445-2.652-11.351-15.622-30.101-18.193-46.034-24.907-13.28-5.596-28.018-8.063-42.903-9.706-18.221-2.013-37.084-0.243-54.703-7.018-2.836-1.091-5.809-2.082-8.301-3.745-3.31-2.209-4.708-5.247-0.213-7.76 19.668-10.993 38.263-23.944 58.92-33.104 9.262-4.107 14.956-1.085 18.421 8.225 4.518 12.141 10.505 14.543 22.947 9.959 16.657-6.137 34.352-6.762 51.615-6.28 11.094 0.31 21.886-1.617 32.03-3.675 18.441-3.74 37.256-5.481 55.398-5.059 15.981 0.372 33.792 2.004 48.088 12.372 13.245 9.605 24.3 21.193 29.273 37.278 3.809 12.319 2.085 24.328-4.662 35.164-6.626 10.641-10.111 21.261-7.205 34.114 1.411 6.239 0.257 13.381-1.107 19.825-1.131 5.346-0.349 9.195 2.938 13.44 11.47 14.809 24.948 27.336 36.052 42.151 10.85 14.476 12.551 27.849 12.795 46.034 0.513 38.302-9.76 76.553-28.163 110.06-3.121 5.682-6.467 11.238-9.811 16.792-12.309 20.44-24.618 40.88-36.927 61.319-15.681 26.038-31.623 52.41-52.693 74.529-36.294 38.101-104.16 50.822-154.02 37.469-44.287-11.861-82.804-43.719-102.76-84.997-1.824-3.776-3.493-7.629-5.003-11.541zm73.074-619.32c-1.897 0.179-2.159 1.751-2.823 3.114-6.71 13.775-13.02 27.775-20.408 41.181-4.518 8.2-10.521 15.616-18.261 21.354-1.857 1.377-5.056 3.374-4.057 5.453 1.321 2.75 4.286 0.46 6.48-0.272 9.028-3.014 16.096-8.37 20.517-17.003 1.655-3.232 3.498-6.394 5.543-9.391 1.407-2.062 3.644-3.49 6.179-3.477 3.396 0.017 3.596 3.203 3.765 5.362 1.566 20.023 14.282 32.565 29.03 43.765 4.932 3.745 11.54 10.589 16.222 5.747 5.204-5.381 0.175-12.941-5.212-18.056-1.322-1.255-2.478-2.997-4.061-3.61-7.621-2.951-12.99-8.9-18.762-14.141-7.451-6.765-10.699-15.289-11.851-25.731-1.265-11.474-1.758-22.938-2.606-34.421l0.261-2.394c-0.27 0.045-0.54 0.09-0.81 0.136 0.285 0.796 0.569 1.59 0.854 2.384zm-206.77 67.898c4.115 7.14 7.906 19.5 17.45 28.69 3.909 3.764 7.699 4.673 12.237 2.472 4.967-2.409 4.409-7.084 3.217-11.164-2.889-9.883-5.243-20.062-13.132-27.669-6.606-6.371-9.189-14.819-11.392-23.412-0.598-2.332-1.156-4.789-2.359-6.817-1.189-2.006-2.914-4.496-5.546-4.113-2.675 0.389-3.808 3.251-4.021 5.577-0.992 10.853-2.766 21.799 3.546 36.436zm-147.26 8.636c1.575 4.476 2.449 7.412 3.635 10.216 1.425 3.368 3.025 6.671 4.711 9.918 3.053 5.882 12.235 10.64 16.539 8.267 6.951-3.831 4.578-9.677 2.709-15.255-0.776-2.314-1.179-4.923-2.535-6.845-9.879-14.003-15.542-29.351-16.111-46.595-0.128-3.878-2.742-3.268-4.998-1.33-3.903 3.353-5.576 7.93-6.616 12.759-2.26 10.493-0.868 20.63 2.666 28.865z"
   id="path2"
   style="fill:#ffffff;fill-opacity:1" />
	<path
   d="m732.06 689.19c-6.037-19.369-11.034-39.361-10.082-59.421 1.072-22.574 11.575-51.562 44.059-56.143 1.784-0.252 3.503-1.068 5.208-1.735 2.499-0.978 4.273-2.527 3.372-5.549-0.772-2.59-2.849-2.91-5.137-2.636-1.213 0.145-2.406 0.505-3.62 0.573-3.15 0.176-7.173 3.945-9.193 0.222-2.162-3.985 2.75-5.221 5.352-7.068 1.82-1.292 1.9-3.098 0.951-4.847-1.344-2.475-3.527-3.004-6.251-2.463-11.365 2.258-22.793 4.217-34.114 6.673-6.167 1.338-9.71-0.084-11.596-6.59-1.533-5.289-3.264-10.329-3.263-15.987 4e-3 -42.697-0.345-85.394-0.211-128.09 0.042-13.278 4.122-25.869 9.17-38.059 1.176-2.84 3.024-5.47 2.125-8.665-6.258-22.242-2.481-44.899-3-67.388-0.753-32.677-2.066-65.341-3.023-98.014-0.393-13.413 2.664-26.573 3.952-39.835 1.817-18.715 5.271-37.492 12.763-55.099 11.185-26.288 31.137-42.625 57.555-52.631 25.473-9.649 58.357 1.193 72.518 20.861 6.858 9.525 9.097 20.577 11.204 31.641 4.947 25.983 3.83 52.263 3.075 78.485-0.886 30.77-2.352 61.526-2.99 92.301-0.355 17.124 1.245 34.194 5.042 50.976 2.23 9.855-1.875 16.555-11.77 17.477-10 0.932-20.42 2.507-30.087 0.722-16.231-2.996-29.904 3.721-44.149 8.467-5.288 1.762-10.07 5.138-12.673 11.135-2.135 4.921-8.203 4.732-12.616 6.556-4.73 1.955-9.654 3.883-8.468 10.136 1.153 6.08 6.589 7.06 11.504 6.682 22.228-1.711 44.425-2.285 66.735-1.532 9.237 0.312 18.127 2.02 27.157 3.156 6.094 0.766 8.327 4.932 8.655 10.996 1.22 22.574 1.913 45.23 4.455 67.667 3.452 30.467-2.857 59.414-10.832 88.299-2.163 7.835-6.593 14.375-12.176 20.202-4.207 4.391-8.799 6.104-14.827 3.53-3.608-1.541-7.578-2.464-11.478-3.027-3.831-0.553-9.583-1.323-10.409 2.884-1.033 5.265 4.676 6.633 8.934 6.783 6.384 0.226 11.692 3.05 17.313 5.427 10.95 4.63 15.355 13.14 15.892 24.505 1.105 23.365-3.801 45.863-8.247 68.625-5.153 26.379-20.642 45.429-39.009 63.163-12.44 12.013-35.082 9.841-48.895-4.735-9.94-10.486-22.682-31.948-28.875-48.629z"
   id="path4"
   style="fill:#ffffff;fill-opacity:1" />
	<path
   d="m467.54 676.99c-8.02-14.546-7.709-31.609-9.693-48.223-1.146-9.593 2.064-18.025 6.878-26.049 2.823-4.707 5.927-9.292 8.237-14.243 1.504-3.224 1.72-7.757-3.962-5.842-10.812 3.645-16.111-3.15-20.866-10.41-6.602-10.079-9.949-21.632-13.138-33.132-11.266-40.631-22.405-81.302-35.517-121.39-4.618-14.118-6.707-28.526-7.029-43.258-0.284-13.005 9.472-20.623 16.395-29.719 1.278-1.679 4.363-3.121 4.273-4.523-0.836-13.046 9.047-20.789 14.624-30.622 1.16-2.045 1.716-4.056 0.178-5.93-1.748-2.129-4.044-0.753-5.921-0.162-7.575 2.389-15.167 4.402-23.213 4.413-7.094 0.01-12.301-2.002-14.308-9.725-8.973-34.529-21.555-68.135-26.628-103.66-2.627-18.4-6.815-36.525-7.355-55.303-0.396-13.775-0.124-27.87 6.877-39.111 13.983-22.45 34.363-35.878 61.863-35.216 26.434 0.636 49.79 16.07 62.153 39.239 26.279 49.248 34.295 102.04 34.786 156.72 0.105 11.712-3.901 22.843-5.803 34.278-0.551 3.312-2.487 4.778-5.645 4.762-3.662-0.019-7.432 0.325-10.965-0.405-16.291-3.368-30.654 1.989-44.641 9.318-3.016 1.58-6.558 3.484-4.686 7.557 1.951 4.245 5.343 1.144 7.859 0.265 10.527-3.679 21.612-3.677 32.465-5.106 2.723-0.358 7.1-0.771 7.539 3.137 0.346 3.074-3.668 3.359-6.095 4.476-14.204 6.532-30.519 6.19-44.419 13.683-6.168 3.325-12.488 6.362-17.53 11.484-2.371 2.409-6.027 4.522-3.557 8.234 2.624 3.944 6.214 0.825 8.951-0.492 15.409-7.414 30.373-15.861 46.136-22.394 10.691-4.432 21.923-9.212 34.266-6.196 20.525 5.015 29.376 21.185 35.251 38.886 13.388 40.34 16.929 82.036 14.547 124.33-0.378 6.717-1.035 13.52 0.758 20.076 2.264 8.28-1.558 13.175-8.661 15.656-9.507 3.321-19.157 6.469-28.986 8.57-13.71 2.931-20.351 13.664-28.011 23.434-0.556 0.709-0.585 2.577-0.044 3.255 1.358 1.702 3.454 1.09 5.082 0.384 8.129-3.523 16.377-6.843 24.231-10.915 10.397-5.39 21.774-7.974 32.589-12.142 4.237-1.633 9.1-1.297 13.403 0.929 2.13 1.102 4.67 2.194 4.264 5.266-0.463 3.499-3.792 4.739-6.139 4.342-20.828-3.515-34.225 11.547-49.971 20.156-8.654 4.732-16.644 11.202-23.524 18.622-1.643 1.772-3.401 3.511-4.675 5.535-1.803 2.866-3.656 6.349-0.847 9.253 2.708 2.8 5.817 0.111 8.311-1.202 11.604-6.112 23.201-12.261 34.535-18.853 6.435-3.743 13.516-5.833 20.401-7.854 12.311-3.612 23.033 2.067 27.502 15.105 12.812 37.374 19.759 75.488 10.232 114.91-2.441 10.102-6.464 19.596-11.057 29-12.805 26.209-59.317 34.563-79.595 14.019-6.759-6.847-9.534-15.546-13.899-23.465-7.511-13.623-14.666-27.521-18.206-43.76z"
   id="path6"
   style="fill:#ffffff;fill-opacity:1" />
	<path
   d="m1001.6 800.09c-12.27 3.065-23.815 7.897-36.158 2.659-19.35-8.21-27.657-23.69-29.388-43.793-1.963-22.797 6.039-43.94 10.532-65.663 1.482-7.164 3.764-14.162 5.239-21.327 2.063-10.017 5.516-19.551 11.582-27.661 4.077-5.451 8.861-9.712 5.596-17.541-1.516-3.635 1.811-5.064 5.064-6.03 6.971-2.072 14.635-1.856 20.947-5.977 2.083-1.36 5.177-2.333 4.394-6.122-0.831-4.023-3.718-4.033-6.896-4.35-14.863-1.481-15.29-1.774-12.403-16.796 3.85-20.026 9.305-39.683 14.234-59.458 4.853-19.472 11.795-38.348 15.691-58.058 1.833-9.273 6.917-17.466 9.31-26.716 1.659-6.413 8.583-4.759 14.164-4.177 11.059 1.153 21.867 5.305 33.135 3.453 3.258-0.536 8.468 0.158 9.152-4.292 0.645-4.199-3.994-5.582-7.111-7.375-3.438-1.978-7.072-3.657-10.318-5.904-1.326-0.918-2.626-3.017-2.558-4.518 0.088-1.956 2.509-2.323 4.273-2.704 6.358-1.374 12.734-0.347 19.109-0.101 5.076 0.196 12.541 1.34 13.48-3.913 0.828-4.624-7.067-3.693-10.954-4.81-14.578-4.19-29.56-2.541-44.358-1.116-6.083 0.586-8.164-0.316-8.695-7.136-1.056-13.576 4.864-25.641 6.911-38.495 0.869-5.459 0.896-10.725 1.297-16.107 2.902-39.029 8.223-77.629 20.049-115.15 5.497-17.442 7.895-35.935 15.833-52.525 10.166-21.248 23.704-39.802 46.628-49.228 7.286-2.996 12.79-8.341 22.026-8.944 32.579-2.129 58.842 19.115 64.646 47.981 4.621 22.981 5.166 45.817-0.776 68.724-2.06 7.943-2.845 16.224-4.077 24.371-1.952 12.909-5.043 25.1-16.74 33.195-6.904 4.778-8.81 12.594-9.188 20.189-0.92 18.511-4.097 36.775-5.268 55.294-0.971 15.367-4.19 30.622-3.727 46.24 0.203 6.863 2.177 13.563-0.117 20.754-5.138 16.108-13.177 20.634-29.354 15.06-7.818-2.694-15.755-4.913-23.985-5.914-1.792-0.218-4.009-0.566-4.767 1.574-0.745 2.105 1.106 3.353 2.67 4.234 5.586 3.146 11.269 6.119 16.873 9.234 5.412 3.008 10.197 6.58 12.578 12.717 1.215 3.131 1.807 5.875-1.063 8.282-2.894 2.427-5.126 0.278-7.329-1.28-4.48-3.168-8.697-6.772-13.428-9.489-2.005-1.151-5.342-3.965-7.325-1.042-1.789 2.637 0.062 5.996 2.562 8.031 4.954 4.034 9.893 8.151 15.226 11.639 6.847 4.478 10.125 10.293 8.963 18.483-4.816 33.954-7.88 68.429-23.531 99.674-4.814 9.611-12.203 17.946-16.977 27.823-1.699 3.516-5.474 4.789-9.352 2.35-18.582-11.69-41.328-9.48-60.84-18.236-5.091-2.284-10.301 0.86-14.724 3.296-4.035 2.223-0.623 4.992 1.329 6.191 5.187 3.186 10.652 5.961 16.167 8.557 3.995 1.881 7.563 3.957 9.227 8.329 3.881 10.198 12.034 16.389 20.419 22.686 13.824 10.381 19.818 33.452 8.042 46.998-3.076 3.538-4.592 8.542-6.395 13.044-1.48 3.694-3.348 6.676-6.279 9.634-9.785 9.877-13.055 23.912-21.21 34.965-8.61 11.672-17.951 22.239-32.057 26.29z"
   id="path8"
   style="fill:#ffffff;fill-opacity:1" />
	<path
   d="m1676.1 1079.8c11.76 36.864-4.683 71.571-30.772 97.867-15.588 15.711-34.218 25.998-51.583 39.267-16.086 12.291-35.019 15.985-54.414 21.835l-19.863 5.991c-23.369 7.048-46.737 14.097-70.105 21.146-6.927 2.089-14.633 4.142-20.6 8.414-4.988 3.57-6.02 10.827-12.941 10.964-3.556 0.07-4.955-2.953-6.022-5.941-5.14-14.388-7.656-29.407-10.452-44.339-0.405-2.16-0.48-5.249-2.074-5.583-2.488-0.521-1.734 3.332-3.075 4.328-4.49 3.335-4.675 8.363-5.477 12.985-4.285 24.709-27.673 36.596-47.96 46.871-27.579 13.968-53.986 29.196-76.883 50.218-5.335 4.898-10.821 10.219-17.858 11.932-6.608 1.608-13.687-0.3-19.528-3.783-15.347-9.152-17.91-21.577-22.095-37.766-3.07-11.877-4.533-24.089-4.183-36.357 0.374-13.123 3.318-26.459 10.538-37.426 11.418-17.342 33.39-32.643 54.184-35.201 36.079-4.438 66.437-28.212 92.506-51.877 16.371-14.862 32.078-30.526 49.545-44.131 7.228-5.63 18.654-10.389 24.151-17.637 5.267-6.945 6.149-16.902 11.608-24.045 11.643-15.233 25.712-27.656 42.758-36.577 33.568-17.567 73.704-20.851 110.49-13.312 35.055 7.185 67.087 24.457 79.443 60.161 0.23 0.665 0.451 1.331 0.664 1.996z"
   id="path10"
   style="fill:#ffffff;fill-opacity:1" />
	<path
   d="m127.15 586.43c-2.644-12.525-10.44-30.98-13.154-50.777-1.752-12.779-0.037-24.423 10.35-33.401 2.546-2.201 4.575-4.898 1.426-7.614-2.679-2.311-5.128 0.107-6.955 2.188-2.212 2.519-4.048 5.373-6.306 7.845-3.197 3.5-6.875 6.894-11.837 3.382-5.39-3.815-9.544-9.126-9.405-15.885 0.091-4.414 5.067-3.604 8.178-3.881 10.756-0.958 19.879-5.754 28.216-12.058 2.629-1.988 6.493-4.932 3.784-9.158-2.45-3.821-6.105-1.336-9.116-0.319-7.814 2.639-15.433 5.912-23.342 8.201-16.46 4.764-27.963-0.012-33.928-15.855-9.207-24.457-18.353-49.12-20.792-75.431-0.83-8.958-0.383-18.157 0.551-27.135 3.578-34.389 47.94-53.238 79.211-30.354 9.792 7.166 16.495 16.688 21.876 27.675 16.163 32.996 26.349 68.43 42.3 101.54 6.587 13.672 16.297 24.327 26.354 34.858 18.194 19.051 33.902 39.903 46.953 62.682 6.974 12.173 15.101 24.359 17.863 38.055 3.409 16.899 10.47 29.854 22.404 42.889 22.173 24.222 39.559 52.491 51.704 83.341 9.954 25.283 19.702 50.87 20.422 78.493 0.754 28.92-22.144 49.674-50.727 47.018-15.732-1.462-23.458-13.729-31.394-24.599-24.343-33.344-44.251-69.382-62.091-106.57-6.609-13.776-3.146-23.681 11.018-30.443 6.15-2.937 9.732-8.08 13.551-13.194 1.153-1.543 2.2-3.375 1.199-5.035-1.267-2.1-3.896-1.898-5.868-1.435-5.412 1.272-10.208 3.949-14.446 7.561-17.709 15.093-28.067 12.454-43.262 2.844-29.617-18.728-51.595-44.675-64.737-85.427z"
   id="path12"
   style="fill:#ffffff;fill-opacity:1" />
	<path
   d="m919.41 1078.8c3.531-1.625 7.645-2.181 12.469-1.06 10.204 2.37 20.642 0.543 28.047-6.466 14.563-13.783 31.962-16.257 50.555-15.906 8.578 0.162 15.937-2.229 22.714-7.834 5.831-4.822 13.127-10.41 20.687-5.737 7.646 4.727 9.859 13.424 9.082 22.604-0.565 6.672-2.942 10.016-10.125 12.606-10.205 3.679-20.578 7.45-30.76 11.139-9.966 3.611-20.886 7.864-32.436 4.192-5.416-1.722-10.882 0.984-16.166 2.068-11.493 2.356-22.894 4.971-34.087 8.945-8.876 3.151-18.381-0.683-25.424-6.492-8.914-7.353-6.816-13.699 5.444-18.059z"
   id="path14"
   style="fill:#ffffff;fill-opacity:1" />
</svg>
